<svg width="659" height="147" viewBox="0 0 659 147" fill="none" xmlns="http://www.w3.org/2000/svg">
<path d="M94.7711 48.248C94.2591 46.264 93.5551 44.44 92.6591 42.776C91.7631 41.112 90.6111 39.672 89.2031 38.456C87.7951 37.24 86.1311 36.312 84.2111 35.672C82.3551 34.968 80.1791 34.616 77.6831 34.616C74.0351 34.616 70.8671 35.352 68.1791 36.824C65.5551 38.296 63.4111 40.28 61.7471 42.776C60.0831 45.208 58.8351 47.992 58.0031 51.128C57.2351 54.264 56.8511 57.464 56.8511 60.728C56.8511 63.992 57.2351 67.192 58.0031 70.328C58.8351 73.464 60.0831 76.28 61.7471 78.776C63.4111 81.208 65.5551 83.16 68.1791 84.632C70.8671 86.104 74.0351 86.84 77.6831 86.84C80.3711 86.84 82.7391 86.392 84.7871 85.496C86.8351 84.536 88.5951 83.256 90.0671 81.656C91.5391 79.992 92.6911 78.072 93.5231 75.896C94.3551 73.72 94.8991 71.384 95.1551 68.888H106.867C106.611 72.984 105.715 76.728 104.179 80.12C102.707 83.512 100.691 86.456 98.1311 88.952C95.5711 91.384 92.5631 93.272 89.1071 94.616C85.6511 95.96 81.8431 96.632 77.6831 96.632C72.5631 96.632 67.9551 95.704 63.8591 93.848C59.8271 91.928 56.4031 89.336 53.5871 86.072C50.7711 82.808 48.5951 79 47.0591 74.648C45.5871 70.296 44.8511 65.656 44.8511 60.728C44.8511 55.864 45.5871 51.256 47.0591 46.904C48.5951 42.552 50.7711 38.744 53.5871 35.48C56.4031 32.216 59.8271 29.624 63.8591 27.704C67.9551 25.784 72.5631 24.824 77.6831 24.824C81.5231 24.824 85.1391 25.368 88.5311 26.456C91.9231 27.48 94.8991 29.016 97.4591 31.064C100.083 33.048 102.195 35.48 103.795 38.36C105.395 41.24 106.387 44.536 106.771 48.248H94.7711ZM110.772 45.368H122.772L135.732 82.424H135.924L148.5 45.368H159.924L140.628 97.688C139.732 99.928 138.836 102.072 137.94 104.12C137.108 106.168 136.052 107.96 134.772 109.496C133.556 111.096 132.02 112.344 130.164 113.24C128.308 114.2 125.94 114.68 123.06 114.68C120.5 114.68 117.972 114.488 115.476 114.104V104.888C116.372 105.016 117.236 105.144 118.068 105.272C118.9 105.464 119.764 105.56 120.66 105.56C121.94 105.56 122.996 105.4 123.828 105.08C124.66 104.76 125.332 104.28 125.844 103.64C126.42 103.064 126.9 102.36 127.284 101.528C127.668 100.696 128.02 99.736 128.34 98.648L129.588 94.808L110.772 45.368ZM173.322 26.456H184.266L179.178 51.032L179.37 51.224C183.082 46.424 188.106 44.024 194.442 44.024C197.386 44.024 200.01 44.536 202.314 45.56C204.682 46.584 206.666 48.024 208.266 49.88C209.866 51.672 211.082 53.816 211.914 56.312C212.746 58.808 213.162 61.528 213.162 64.472C213.162 68.376 212.618 72.248 211.53 76.088C210.442 79.864 208.81 83.256 206.634 86.264C204.458 89.272 201.738 91.704 198.474 93.56C195.21 95.416 191.434 96.344 187.146 96.344C183.306 96.344 180.01 95.64 177.258 94.232C174.57 92.824 172.394 90.296 170.73 86.648H170.538L169.098 95H159.114L173.322 26.456ZM190.602 52.664C187.85 52.664 185.45 53.368 183.402 54.776C181.354 56.184 179.626 58.008 178.218 60.248C176.874 62.424 175.85 64.856 175.146 67.544C174.506 70.168 174.186 72.728 174.186 75.224C174.186 79.064 175.114 82.104 176.97 84.344C178.826 86.584 181.77 87.704 185.802 87.704C188.554 87.704 190.954 87 193.002 85.592C195.05 84.184 196.746 82.392 198.09 80.216C199.498 78.04 200.522 75.64 201.162 73.016C201.866 70.328 202.218 67.736 202.218 65.24C202.218 61.4 201.29 58.36 199.434 56.12C197.578 53.816 194.634 52.664 190.602 52.664ZM258.793 65.816C258.665 64.088 258.281 62.424 257.641 60.824C257.065 59.224 256.233 57.848 255.145 56.696C254.121 55.48 252.841 54.52 251.305 53.816C249.833 53.048 248.169 52.664 246.313 52.664C244.393 52.664 242.633 53.016 241.033 53.72C239.497 54.36 238.153 55.288 237.001 56.504C235.913 57.656 235.017 59.032 234.313 60.632C233.673 62.232 233.321 63.96 233.257 65.816H258.793ZM233.257 73.016C233.257 74.936 233.513 76.792 234.025 78.584C234.601 80.376 235.433 81.944 236.521 83.288C237.609 84.632 238.985 85.72 240.649 86.552C242.313 87.32 244.297 87.704 246.601 87.704C249.801 87.704 252.361 87.032 254.281 85.688C256.265 84.28 257.737 82.2 258.697 79.448H269.065C268.489 82.136 267.497 84.536 266.089 86.648C264.681 88.76 262.985 90.552 261.001 92.024C259.017 93.432 256.777 94.488 254.281 95.192C251.849 95.96 249.289 96.344 246.601 96.344C242.697 96.344 239.241 95.704 236.233 94.424C233.225 93.144 230.665 91.352 228.553 89.048C226.505 86.744 224.937 83.992 223.849 80.792C222.825 77.592 222.313 74.072 222.313 70.232C222.313 66.712 222.857 63.384 223.945 60.248C225.097 57.048 226.697 54.264 228.745 51.896C230.857 49.464 233.385 47.544 236.329 46.136C239.273 44.728 242.601 44.024 246.313 44.024C250.217 44.024 253.705 44.856 256.777 46.52C259.913 48.12 262.505 50.264 264.553 52.952C266.601 55.64 268.073 58.744 268.969 62.264C269.929 65.72 270.185 69.304 269.737 73.016H233.257ZM278.345 26.456H289.289V95H278.345V26.456ZM335.293 65.816C335.165 64.088 334.781 62.424 334.141 60.824C333.565 59.224 332.733 57.848 331.645 56.696C330.621 55.48 329.341 54.52 327.805 53.816C326.333 53.048 324.669 52.664 322.813 52.664C320.893 52.664 319.133 53.016 317.533 53.72C315.997 54.36 314.653 55.288 313.501 56.504C312.413 57.656 311.517 59.032 310.813 60.632C310.173 62.232 309.821 63.96 309.757 65.816H335.293ZM309.757 73.016C309.757 74.936 310.013 76.792 310.525 78.584C311.101 80.376 311.933 81.944 313.021 83.288C314.109 84.632 315.485 85.72 317.149 86.552C318.813 87.32 320.797 87.704 323.101 87.704C326.301 87.704 328.861 87.032 330.781 85.688C332.765 84.28 334.237 82.2 335.197 79.448H345.565C344.989 82.136 343.997 84.536 342.589 86.648C341.181 88.76 339.485 90.552 337.501 92.024C335.517 93.432 333.277 94.488 330.781 95.192C328.349 95.96 325.789 96.344 323.101 96.344C319.197 96.344 315.741 95.704 312.733 94.424C309.725 93.144 307.165 91.352 305.053 89.048C303.005 86.744 301.437 83.992 300.349 80.792C299.325 77.592 298.813 74.072 298.813 70.232C298.813 66.712 299.357 63.384 300.445 60.248C301.597 57.048 303.197 54.264 305.245 51.896C307.357 49.464 309.885 47.544 312.829 46.136C315.773 44.728 319.101 44.024 322.813 44.024C326.717 44.024 330.205 44.856 333.277 46.52C336.413 48.12 339.005 50.264 341.053 52.952C343.101 55.64 344.573 58.744 345.469 62.264C346.429 65.72 346.685 69.304 346.237 73.016H309.757Z" fill="#444444"/>
<path d="M409.408 25.456H415.456V94H409.408V25.456ZM387.712 49.552H379.264V44.464H387.712V39.952C387.712 37.84 387.872 35.888 388.192 34.096C388.512 32.304 389.12 30.768 390.016 29.488C390.912 28.208 392.128 27.216 393.664 26.512C395.264 25.808 397.28 25.456 399.712 25.456C400.608 25.456 401.44 25.488 402.208 25.552C402.976 25.616 403.84 25.712 404.8 25.84V31.024C403.968 30.896 403.2 30.8 402.496 30.736C401.792 30.608 401.088 30.544 400.384 30.544C398.72 30.544 397.44 30.8 396.544 31.312C395.648 31.824 394.976 32.528 394.528 33.424C394.144 34.256 393.92 35.248 393.856 36.4C393.792 37.552 393.76 38.8 393.76 40.144V44.464H403.552V49.552H393.76V94H387.712V49.552ZM462.72 65.776C462.656 63.472 462.24 61.264 461.472 59.152C460.768 57.04 459.744 55.184 458.4 53.584C457.056 51.92 455.424 50.608 453.504 49.648C451.584 48.624 449.408 48.112 446.976 48.112C444.48 48.112 442.272 48.624 440.352 49.648C438.432 50.608 436.8 51.92 435.456 53.584C434.112 55.184 433.024 57.072 432.192 59.248C431.424 61.36 430.912 63.536 430.656 65.776H462.72ZM430.656 70.864C430.656 73.04 430.944 75.312 431.52 77.68C432.16 79.984 433.152 82.064 434.496 83.92C435.84 85.776 437.536 87.312 439.584 88.528C441.632 89.744 444.096 90.352 446.976 90.352C451.392 90.352 454.848 89.2 457.344 86.896C459.84 84.592 461.568 81.52 462.528 77.68H468.576C467.296 83.312 464.928 87.664 461.472 90.736C458.08 93.808 453.248 95.344 446.976 95.344C443.072 95.344 439.68 94.672 436.8 93.328C433.984 91.92 431.68 90.032 429.888 87.664C428.096 85.232 426.752 82.448 425.856 79.312C425.024 76.112 424.608 72.752 424.608 69.232C424.608 65.968 425.024 62.768 425.856 59.632C426.752 56.496 428.096 53.712 429.888 51.28C431.68 48.784 433.984 46.8 436.8 45.328C439.68 43.792 443.072 43.024 446.976 43.024C450.944 43.024 454.336 43.824 457.152 45.424C459.968 47.024 462.24 49.136 463.968 51.76C465.76 54.32 467.04 57.296 467.808 60.688C468.576 64.016 468.896 67.408 468.768 70.864H430.656ZM512.501 65.776C512.437 63.472 512.021 61.264 511.253 59.152C510.549 57.04 509.525 55.184 508.181 53.584C506.837 51.92 505.205 50.608 503.285 49.648C501.365 48.624 499.189 48.112 496.757 48.112C494.261 48.112 492.053 48.624 490.133 49.648C488.213 50.608 486.581 51.92 485.237 53.584C483.893 55.184 482.805 57.072 481.973 59.248C481.205 61.36 480.693 63.536 480.437 65.776H512.501ZM480.437 70.864C480.437 73.04 480.725 75.312 481.301 77.68C481.941 79.984 482.933 82.064 484.277 83.92C485.621 85.776 487.317 87.312 489.365 88.528C491.413 89.744 493.877 90.352 496.757 90.352C501.173 90.352 504.629 89.2 507.125 86.896C509.621 84.592 511.349 81.52 512.309 77.68H518.357C517.077 83.312 514.709 87.664 511.253 90.736C507.861 93.808 503.029 95.344 496.757 95.344C492.853 95.344 489.461 94.672 486.581 93.328C483.765 91.92 481.461 90.032 479.669 87.664C477.877 85.232 476.533 82.448 475.637 79.312C474.805 76.112 474.389 72.752 474.389 69.232C474.389 65.968 474.805 62.768 475.637 59.632C476.533 56.496 477.877 53.712 479.669 51.28C481.461 48.784 483.765 46.8 486.581 45.328C489.461 43.792 492.853 43.024 496.757 43.024C500.725 43.024 504.117 43.824 506.933 45.424C509.749 47.024 512.021 49.136 513.749 51.76C515.541 54.32 516.821 57.296 517.589 60.688C518.357 64.016 518.677 67.408 518.549 70.864H480.437ZM536.266 44.464H546.346V49.552H536.266V82.96C536.266 84.944 536.522 86.512 537.034 87.664C537.61 88.752 538.986 89.36 541.162 89.488C542.89 89.488 544.618 89.392 546.346 89.2V94.288C545.45 94.288 544.554 94.32 543.658 94.384C542.762 94.448 541.866 94.48 540.97 94.48C536.938 94.48 534.122 93.712 532.522 92.176C530.922 90.576 530.154 87.664 530.218 83.44V49.552H521.578V44.464H530.218V29.584H536.266V44.464Z" fill="#2D8CFE"/>
</svg>
